<?xml version="1.0" standalone="no"?>
<svg viewBox="0 0 200 200" xmlns="http://www.w3.org/2000/svg">
  <path fill="#FF9905" d="M45.9,-74.8C57.7,-63.8,64.3,-48.1,69.6,-32.8C75,-17.6,79.2,-2.8,78.7,12.4C78.2,27.6,73.1,43.3,62.9,53.8C52.7,64.4,37.4,69.9,21.6,75.4C5.8,80.8,-10.5,86.2,-24.7,82.7C-38.9,79.2,-51,66.9,-62,53.9C-73.1,40.9,-83.1,27.1,-86.5,11.7C-89.9,-3.8,-86.7,-21,-78.2,-34.1C-69.7,-47.2,-55.8,-56.2,-41.9,-66.2C-27.9,-76.2,-14,-87.3,1.5,-89.7C17,-92.1,34.1,-85.8,45.9,-74.8Z" transform="translate(100 100)" />
</svg>
